<mxfile host="Electron" modified="2024-05-22T20:37:21.204Z" agent="Mozilla/5.0 (Windows NT 10.0; Win64; x64) AppleWebKit/537.36 (KHTML, like Gecko) draw.io/24.2.5 Chrome/120.0.6099.109 Electron/28.1.0 Safari/537.36" etag="UeM-sxzYtdaDfn4dMYMG" version="24.2.5" type="device">
  <diagram id="R2lEEEUBdFMjLlhIrx00" name="Page-1">
    <mxGraphModel dx="2610" dy="1048" grid="1" gridSize="10" guides="1" tooltips="1" connect="1" arrows="1" fold="1" page="1" pageScale="1" pageWidth="850" pageHeight="1100" math="0" shadow="0" extFonts="Permanent Marker^https://fonts.googleapis.com/css?family=Permanent+Marker">
      <root>
        <mxCell id="0" />
        <mxCell id="1" parent="0" />
        <mxCell id="86bQosephHpqAEwbpqTj-27" value="tb_usuarios" style="shape=table;startSize=30;container=1;collapsible=1;childLayout=tableLayout;fixedRows=1;rowLines=0;fontStyle=1;align=center;resizeLast=1;html=1;" parent="1" vertex="1">
          <mxGeometry x="-760" y="50" width="250" height="210" as="geometry" />
        </mxCell>
        <mxCell id="86bQosephHpqAEwbpqTj-28" value="" style="shape=tableRow;horizontal=0;startSize=0;swimlaneHead=0;swimlaneBody=0;fillColor=none;collapsible=0;dropTarget=0;points=[[0,0.5],[1,0.5]];portConstraint=eastwest;top=0;left=0;right=0;bottom=1;" parent="86bQosephHpqAEwbpqTj-27" vertex="1">
          <mxGeometry y="30" width="250" height="30" as="geometry" />
        </mxCell>
        <mxCell id="86bQosephHpqAEwbpqTj-29" value="PK" style="shape=partialRectangle;connectable=0;fillColor=none;top=0;left=0;bottom=0;right=0;fontStyle=1;overflow=hidden;whiteSpace=wrap;html=1;" parent="86bQosephHpqAEwbpqTj-28" vertex="1">
          <mxGeometry width="30" height="30" as="geometry">
            <mxRectangle width="30" height="30" as="alternateBounds" />
          </mxGeometry>
        </mxCell>
        <mxCell id="86bQosephHpqAEwbpqTj-30" value="pk_id_usuario: int auto increment NOT NULL" style="shape=partialRectangle;connectable=0;fillColor=none;top=0;left=0;bottom=0;right=0;align=left;spacingLeft=6;fontStyle=5;overflow=hidden;whiteSpace=wrap;html=1;" parent="86bQosephHpqAEwbpqTj-28" vertex="1">
          <mxGeometry x="30" width="220" height="30" as="geometry">
            <mxRectangle width="220" height="30" as="alternateBounds" />
          </mxGeometry>
        </mxCell>
        <mxCell id="86bQosephHpqAEwbpqTj-31" value="" style="shape=tableRow;horizontal=0;startSize=0;swimlaneHead=0;swimlaneBody=0;fillColor=none;collapsible=0;dropTarget=0;points=[[0,0.5],[1,0.5]];portConstraint=eastwest;top=0;left=0;right=0;bottom=0;" parent="86bQosephHpqAEwbpqTj-27" vertex="1">
          <mxGeometry y="60" width="250" height="30" as="geometry" />
        </mxCell>
        <mxCell id="86bQosephHpqAEwbpqTj-32" value="" style="shape=partialRectangle;connectable=0;fillColor=none;top=0;left=0;bottom=0;right=0;editable=1;overflow=hidden;whiteSpace=wrap;html=1;" parent="86bQosephHpqAEwbpqTj-31" vertex="1">
          <mxGeometry width="30" height="30" as="geometry">
            <mxRectangle width="30" height="30" as="alternateBounds" />
          </mxGeometry>
        </mxCell>
        <mxCell id="86bQosephHpqAEwbpqTj-33" value="email:&amp;nbsp; varchar(100) NOT NULL" style="shape=partialRectangle;connectable=0;fillColor=none;top=0;left=0;bottom=0;right=0;align=left;spacingLeft=6;overflow=hidden;whiteSpace=wrap;html=1;" parent="86bQosephHpqAEwbpqTj-31" vertex="1">
          <mxGeometry x="30" width="220" height="30" as="geometry">
            <mxRectangle width="220" height="30" as="alternateBounds" />
          </mxGeometry>
        </mxCell>
        <mxCell id="86bQosephHpqAEwbpqTj-34" value="" style="shape=tableRow;horizontal=0;startSize=0;swimlaneHead=0;swimlaneBody=0;fillColor=none;collapsible=0;dropTarget=0;points=[[0,0.5],[1,0.5]];portConstraint=eastwest;top=0;left=0;right=0;bottom=0;" parent="86bQosephHpqAEwbpqTj-27" vertex="1">
          <mxGeometry y="90" width="250" height="30" as="geometry" />
        </mxCell>
        <mxCell id="86bQosephHpqAEwbpqTj-35" value="" style="shape=partialRectangle;connectable=0;fillColor=none;top=0;left=0;bottom=0;right=0;editable=1;overflow=hidden;whiteSpace=wrap;html=1;" parent="86bQosephHpqAEwbpqTj-34" vertex="1">
          <mxGeometry width="30" height="30" as="geometry">
            <mxRectangle width="30" height="30" as="alternateBounds" />
          </mxGeometry>
        </mxCell>
        <mxCell id="86bQosephHpqAEwbpqTj-36" value="usuario: varchar(30) NOT NULL" style="shape=partialRectangle;connectable=0;fillColor=none;top=0;left=0;bottom=0;right=0;align=left;spacingLeft=6;overflow=hidden;whiteSpace=wrap;html=1;" parent="86bQosephHpqAEwbpqTj-34" vertex="1">
          <mxGeometry x="30" width="220" height="30" as="geometry">
            <mxRectangle width="220" height="30" as="alternateBounds" />
          </mxGeometry>
        </mxCell>
        <mxCell id="86bQosephHpqAEwbpqTj-37" value="" style="shape=tableRow;horizontal=0;startSize=0;swimlaneHead=0;swimlaneBody=0;fillColor=none;collapsible=0;dropTarget=0;points=[[0,0.5],[1,0.5]];portConstraint=eastwest;top=0;left=0;right=0;bottom=0;" parent="86bQosephHpqAEwbpqTj-27" vertex="1">
          <mxGeometry y="120" width="250" height="30" as="geometry" />
        </mxCell>
        <mxCell id="86bQosephHpqAEwbpqTj-38" value="" style="shape=partialRectangle;connectable=0;fillColor=none;top=0;left=0;bottom=0;right=0;editable=1;overflow=hidden;whiteSpace=wrap;html=1;" parent="86bQosephHpqAEwbpqTj-37" vertex="1">
          <mxGeometry width="30" height="30" as="geometry">
            <mxRectangle width="30" height="30" as="alternateBounds" />
          </mxGeometry>
        </mxCell>
        <mxCell id="86bQosephHpqAEwbpqTj-39" value="senha: varchar(30) NOT NULL" style="shape=partialRectangle;connectable=0;fillColor=none;top=0;left=0;bottom=0;right=0;align=left;spacingLeft=6;overflow=hidden;whiteSpace=wrap;html=1;" parent="86bQosephHpqAEwbpqTj-37" vertex="1">
          <mxGeometry x="30" width="220" height="30" as="geometry">
            <mxRectangle width="220" height="30" as="alternateBounds" />
          </mxGeometry>
        </mxCell>
        <mxCell id="86bQosephHpqAEwbpqTj-43" style="shape=tableRow;horizontal=0;startSize=0;swimlaneHead=0;swimlaneBody=0;fillColor=none;collapsible=0;dropTarget=0;points=[[0,0.5],[1,0.5]];portConstraint=eastwest;top=0;left=0;right=0;bottom=0;" parent="86bQosephHpqAEwbpqTj-27" vertex="1">
          <mxGeometry y="150" width="250" height="30" as="geometry" />
        </mxCell>
        <mxCell id="86bQosephHpqAEwbpqTj-44" style="shape=partialRectangle;connectable=0;fillColor=none;top=0;left=0;bottom=0;right=0;editable=1;overflow=hidden;whiteSpace=wrap;html=1;" parent="86bQosephHpqAEwbpqTj-43" vertex="1">
          <mxGeometry width="30" height="30" as="geometry">
            <mxRectangle width="30" height="30" as="alternateBounds" />
          </mxGeometry>
        </mxCell>
        <mxCell id="86bQosephHpqAEwbpqTj-45" value="tipo_usuario: int NOT NULL" style="shape=partialRectangle;connectable=0;fillColor=none;top=0;left=0;bottom=0;right=0;align=left;spacingLeft=6;overflow=hidden;whiteSpace=wrap;html=1;" parent="86bQosephHpqAEwbpqTj-43" vertex="1">
          <mxGeometry x="30" width="220" height="30" as="geometry">
            <mxRectangle width="220" height="30" as="alternateBounds" />
          </mxGeometry>
        </mxCell>
        <mxCell id="86bQosephHpqAEwbpqTj-40" style="shape=tableRow;horizontal=0;startSize=0;swimlaneHead=0;swimlaneBody=0;fillColor=none;collapsible=0;dropTarget=0;points=[[0,0.5],[1,0.5]];portConstraint=eastwest;top=0;left=0;right=0;bottom=0;" parent="86bQosephHpqAEwbpqTj-27" vertex="1">
          <mxGeometry y="180" width="250" height="30" as="geometry" />
        </mxCell>
        <mxCell id="86bQosephHpqAEwbpqTj-41" style="shape=partialRectangle;connectable=0;fillColor=none;top=0;left=0;bottom=0;right=0;editable=1;overflow=hidden;whiteSpace=wrap;html=1;" parent="86bQosephHpqAEwbpqTj-40" vertex="1">
          <mxGeometry width="30" height="30" as="geometry">
            <mxRectangle width="30" height="30" as="alternateBounds" />
          </mxGeometry>
        </mxCell>
        <mxCell id="86bQosephHpqAEwbpqTj-42" value="categoria_usuario: int NOT NULL" style="shape=partialRectangle;connectable=0;fillColor=none;top=0;left=0;bottom=0;right=0;align=left;spacingLeft=6;overflow=hidden;whiteSpace=wrap;html=1;" parent="86bQosephHpqAEwbpqTj-40" vertex="1">
          <mxGeometry x="30" width="220" height="30" as="geometry">
            <mxRectangle width="220" height="30" as="alternateBounds" />
          </mxGeometry>
        </mxCell>
        <mxCell id="86bQosephHpqAEwbpqTj-60" value="tb_apostas" style="shape=table;startSize=30;container=1;collapsible=1;childLayout=tableLayout;fixedRows=1;rowLines=0;fontStyle=1;align=center;resizeLast=1;html=1;" parent="1" vertex="1">
          <mxGeometry x="150" y="700" width="389" height="290" as="geometry" />
        </mxCell>
        <mxCell id="86bQosephHpqAEwbpqTj-61" value="" style="shape=tableRow;horizontal=0;startSize=0;swimlaneHead=0;swimlaneBody=0;fillColor=none;collapsible=0;dropTarget=0;points=[[0,0.5],[1,0.5]];portConstraint=eastwest;top=0;left=0;right=0;bottom=1;" parent="86bQosephHpqAEwbpqTj-60" vertex="1">
          <mxGeometry y="30" width="389" height="20" as="geometry" />
        </mxCell>
        <mxCell id="86bQosephHpqAEwbpqTj-62" value="PK" style="shape=partialRectangle;connectable=0;fillColor=none;top=0;left=0;bottom=0;right=0;fontStyle=1;overflow=hidden;whiteSpace=wrap;html=1;" parent="86bQosephHpqAEwbpqTj-61" vertex="1">
          <mxGeometry width="30" height="20" as="geometry">
            <mxRectangle width="30" height="20" as="alternateBounds" />
          </mxGeometry>
        </mxCell>
        <mxCell id="86bQosephHpqAEwbpqTj-63" value="pk_id_aposta: int auto_increment NOT NULL" style="shape=partialRectangle;connectable=0;fillColor=none;top=0;left=0;bottom=0;right=0;align=left;spacingLeft=6;fontStyle=5;overflow=hidden;whiteSpace=wrap;html=1;" parent="86bQosephHpqAEwbpqTj-61" vertex="1">
          <mxGeometry x="30" width="359" height="20" as="geometry">
            <mxRectangle width="359" height="20" as="alternateBounds" />
          </mxGeometry>
        </mxCell>
        <mxCell id="86bQosephHpqAEwbpqTj-64" value="" style="shape=tableRow;horizontal=0;startSize=0;swimlaneHead=0;swimlaneBody=0;fillColor=none;collapsible=0;dropTarget=0;points=[[0,0.5],[1,0.5]];portConstraint=eastwest;top=0;left=0;right=0;bottom=0;" parent="86bQosephHpqAEwbpqTj-60" vertex="1">
          <mxGeometry y="50" width="389" height="30" as="geometry" />
        </mxCell>
        <mxCell id="86bQosephHpqAEwbpqTj-65" value="FK1" style="shape=partialRectangle;connectable=0;fillColor=none;top=0;left=0;bottom=0;right=0;editable=1;overflow=hidden;whiteSpace=wrap;html=1;" parent="86bQosephHpqAEwbpqTj-64" vertex="1">
          <mxGeometry width="30" height="30" as="geometry">
            <mxRectangle width="30" height="30" as="alternateBounds" />
          </mxGeometry>
        </mxCell>
        <mxCell id="86bQosephHpqAEwbpqTj-66" value="id_usuario: int NOT NULL" style="shape=partialRectangle;connectable=0;fillColor=none;top=0;left=0;bottom=0;right=0;align=left;spacingLeft=6;overflow=hidden;whiteSpace=wrap;html=1;" parent="86bQosephHpqAEwbpqTj-64" vertex="1">
          <mxGeometry x="30" width="359" height="30" as="geometry">
            <mxRectangle width="359" height="30" as="alternateBounds" />
          </mxGeometry>
        </mxCell>
        <mxCell id="86bQosephHpqAEwbpqTj-67" value="" style="shape=tableRow;horizontal=0;startSize=0;swimlaneHead=0;swimlaneBody=0;fillColor=none;collapsible=0;dropTarget=0;points=[[0,0.5],[1,0.5]];portConstraint=eastwest;top=0;left=0;right=0;bottom=0;" parent="86bQosephHpqAEwbpqTj-60" vertex="1">
          <mxGeometry y="80" width="389" height="30" as="geometry" />
        </mxCell>
        <mxCell id="86bQosephHpqAEwbpqTj-68" value="FK2" style="shape=partialRectangle;connectable=0;fillColor=none;top=0;left=0;bottom=0;right=0;editable=1;overflow=hidden;whiteSpace=wrap;html=1;" parent="86bQosephHpqAEwbpqTj-67" vertex="1">
          <mxGeometry width="30" height="30" as="geometry">
            <mxRectangle width="30" height="30" as="alternateBounds" />
          </mxGeometry>
        </mxCell>
        <mxCell id="86bQosephHpqAEwbpqTj-69" value="id_site_aposta: text NOT NULL" style="shape=partialRectangle;connectable=0;fillColor=none;top=0;left=0;bottom=0;right=0;align=left;spacingLeft=6;overflow=hidden;whiteSpace=wrap;html=1;" parent="86bQosephHpqAEwbpqTj-67" vertex="1">
          <mxGeometry x="30" width="359" height="30" as="geometry">
            <mxRectangle width="359" height="30" as="alternateBounds" />
          </mxGeometry>
        </mxCell>
        <mxCell id="86bQosephHpqAEwbpqTj-70" value="" style="shape=tableRow;horizontal=0;startSize=0;swimlaneHead=0;swimlaneBody=0;fillColor=none;collapsible=0;dropTarget=0;points=[[0,0.5],[1,0.5]];portConstraint=eastwest;top=0;left=0;right=0;bottom=0;" parent="86bQosephHpqAEwbpqTj-60" vertex="1">
          <mxGeometry y="110" width="389" height="30" as="geometry" />
        </mxCell>
        <mxCell id="86bQosephHpqAEwbpqTj-71" value="" style="shape=partialRectangle;connectable=0;fillColor=none;top=0;left=0;bottom=0;right=0;editable=1;overflow=hidden;whiteSpace=wrap;html=1;" parent="86bQosephHpqAEwbpqTj-70" vertex="1">
          <mxGeometry width="30" height="30" as="geometry">
            <mxRectangle width="30" height="30" as="alternateBounds" />
          </mxGeometry>
        </mxCell>
        <mxCell id="86bQosephHpqAEwbpqTj-72" value="id_aposta:varchar(100) NOT NULL" style="shape=partialRectangle;connectable=0;fillColor=none;top=0;left=0;bottom=0;right=0;align=left;spacingLeft=6;overflow=hidden;whiteSpace=wrap;html=1;" parent="86bQosephHpqAEwbpqTj-70" vertex="1">
          <mxGeometry x="30" width="359" height="30" as="geometry">
            <mxRectangle width="359" height="30" as="alternateBounds" />
          </mxGeometry>
        </mxCell>
        <mxCell id="86bQosephHpqAEwbpqTj-117" style="shape=tableRow;horizontal=0;startSize=0;swimlaneHead=0;swimlaneBody=0;fillColor=none;collapsible=0;dropTarget=0;points=[[0,0.5],[1,0.5]];portConstraint=eastwest;top=0;left=0;right=0;bottom=0;" parent="86bQosephHpqAEwbpqTj-60" vertex="1">
          <mxGeometry y="140" width="389" height="30" as="geometry" />
        </mxCell>
        <mxCell id="86bQosephHpqAEwbpqTj-118" style="shape=partialRectangle;connectable=0;fillColor=none;top=0;left=0;bottom=0;right=0;editable=1;overflow=hidden;whiteSpace=wrap;html=1;" parent="86bQosephHpqAEwbpqTj-117" vertex="1">
          <mxGeometry width="30" height="30" as="geometry">
            <mxRectangle width="30" height="30" as="alternateBounds" />
          </mxGeometry>
        </mxCell>
        <mxCell id="86bQosephHpqAEwbpqTj-119" value="data_registro_aposta: datetime NOT NULL" style="shape=partialRectangle;connectable=0;fillColor=none;top=0;left=0;bottom=0;right=0;align=left;spacingLeft=6;overflow=hidden;whiteSpace=wrap;html=1;" parent="86bQosephHpqAEwbpqTj-117" vertex="1">
          <mxGeometry x="30" width="359" height="30" as="geometry">
            <mxRectangle width="359" height="30" as="alternateBounds" />
          </mxGeometry>
        </mxCell>
        <mxCell id="86bQosephHpqAEwbpqTj-96" style="shape=tableRow;horizontal=0;startSize=0;swimlaneHead=0;swimlaneBody=0;fillColor=none;collapsible=0;dropTarget=0;points=[[0,0.5],[1,0.5]];portConstraint=eastwest;top=0;left=0;right=0;bottom=0;" parent="86bQosephHpqAEwbpqTj-60" vertex="1">
          <mxGeometry y="170" width="389" height="30" as="geometry" />
        </mxCell>
        <mxCell id="86bQosephHpqAEwbpqTj-97" style="shape=partialRectangle;connectable=0;fillColor=none;top=0;left=0;bottom=0;right=0;editable=1;overflow=hidden;whiteSpace=wrap;html=1;" parent="86bQosephHpqAEwbpqTj-96" vertex="1">
          <mxGeometry width="30" height="30" as="geometry">
            <mxRectangle width="30" height="30" as="alternateBounds" />
          </mxGeometry>
        </mxCell>
        <mxCell id="86bQosephHpqAEwbpqTj-98" value="data_aposta: datetime default current_timestamp NOT NULL" style="shape=partialRectangle;connectable=0;fillColor=none;top=0;left=0;bottom=0;right=0;align=left;spacingLeft=6;overflow=hidden;whiteSpace=wrap;html=1;" parent="86bQosephHpqAEwbpqTj-96" vertex="1">
          <mxGeometry x="30" width="359" height="30" as="geometry">
            <mxRectangle width="359" height="30" as="alternateBounds" />
          </mxGeometry>
        </mxCell>
        <mxCell id="86bQosephHpqAEwbpqTj-93" style="shape=tableRow;horizontal=0;startSize=0;swimlaneHead=0;swimlaneBody=0;fillColor=none;collapsible=0;dropTarget=0;points=[[0,0.5],[1,0.5]];portConstraint=eastwest;top=0;left=0;right=0;bottom=0;" parent="86bQosephHpqAEwbpqTj-60" vertex="1">
          <mxGeometry y="200" width="389" height="30" as="geometry" />
        </mxCell>
        <mxCell id="86bQosephHpqAEwbpqTj-94" style="shape=partialRectangle;connectable=0;fillColor=none;top=0;left=0;bottom=0;right=0;editable=1;overflow=hidden;whiteSpace=wrap;html=1;" parent="86bQosephHpqAEwbpqTj-93" vertex="1">
          <mxGeometry width="30" height="30" as="geometry">
            <mxRectangle width="30" height="30" as="alternateBounds" />
          </mxGeometry>
        </mxCell>
        <mxCell id="86bQosephHpqAEwbpqTj-95" value="valor_aposta:float(12,2) NOT NULL" style="shape=partialRectangle;connectable=0;fillColor=none;top=0;left=0;bottom=0;right=0;align=left;spacingLeft=6;overflow=hidden;whiteSpace=wrap;html=1;" parent="86bQosephHpqAEwbpqTj-93" vertex="1">
          <mxGeometry x="30" width="359" height="30" as="geometry">
            <mxRectangle width="359" height="30" as="alternateBounds" />
          </mxGeometry>
        </mxCell>
        <mxCell id="86bQosephHpqAEwbpqTj-90" style="shape=tableRow;horizontal=0;startSize=0;swimlaneHead=0;swimlaneBody=0;fillColor=none;collapsible=0;dropTarget=0;points=[[0,0.5],[1,0.5]];portConstraint=eastwest;top=0;left=0;right=0;bottom=0;" parent="86bQosephHpqAEwbpqTj-60" vertex="1">
          <mxGeometry y="230" width="389" height="30" as="geometry" />
        </mxCell>
        <mxCell id="86bQosephHpqAEwbpqTj-91" style="shape=partialRectangle;connectable=0;fillColor=none;top=0;left=0;bottom=0;right=0;editable=1;overflow=hidden;whiteSpace=wrap;html=1;" parent="86bQosephHpqAEwbpqTj-90" vertex="1">
          <mxGeometry width="30" height="30" as="geometry">
            <mxRectangle width="30" height="30" as="alternateBounds" />
          </mxGeometry>
        </mxCell>
        <mxCell id="86bQosephHpqAEwbpqTj-92" value="valor_recebido: float(12,2) NOT NULL" style="shape=partialRectangle;connectable=0;fillColor=none;top=0;left=0;bottom=0;right=0;align=left;spacingLeft=6;overflow=hidden;whiteSpace=wrap;html=1;" parent="86bQosephHpqAEwbpqTj-90" vertex="1">
          <mxGeometry x="30" width="359" height="30" as="geometry">
            <mxRectangle width="359" height="30" as="alternateBounds" />
          </mxGeometry>
        </mxCell>
        <mxCell id="e2XpcMaI5s7f8-1Fb0I2-75" style="shape=tableRow;horizontal=0;startSize=0;swimlaneHead=0;swimlaneBody=0;fillColor=none;collapsible=0;dropTarget=0;points=[[0,0.5],[1,0.5]];portConstraint=eastwest;top=0;left=0;right=0;bottom=0;" vertex="1" parent="86bQosephHpqAEwbpqTj-60">
          <mxGeometry y="260" width="389" height="30" as="geometry" />
        </mxCell>
        <mxCell id="e2XpcMaI5s7f8-1Fb0I2-76" style="shape=partialRectangle;connectable=0;fillColor=none;top=0;left=0;bottom=0;right=0;editable=1;overflow=hidden;whiteSpace=wrap;html=1;" vertex="1" parent="e2XpcMaI5s7f8-1Fb0I2-75">
          <mxGeometry width="30" height="30" as="geometry">
            <mxRectangle width="30" height="30" as="alternateBounds" />
          </mxGeometry>
        </mxCell>
        <mxCell id="e2XpcMaI5s7f8-1Fb0I2-77" value="resultado_aposta: float(12,2) NOT NULL" style="shape=partialRectangle;connectable=0;fillColor=none;top=0;left=0;bottom=0;right=0;align=left;spacingLeft=6;overflow=hidden;whiteSpace=wrap;html=1;" vertex="1" parent="e2XpcMaI5s7f8-1Fb0I2-75">
          <mxGeometry x="30" width="359" height="30" as="geometry">
            <mxRectangle width="359" height="30" as="alternateBounds" />
          </mxGeometry>
        </mxCell>
        <mxCell id="86bQosephHpqAEwbpqTj-74" value="" style="edgeStyle=entityRelationEdgeStyle;fontSize=12;html=1;endArrow=ERzeroToMany;startArrow=ERmandOne;rounded=0;" parent="1" source="86bQosephHpqAEwbpqTj-28" target="86bQosephHpqAEwbpqTj-64" edge="1">
          <mxGeometry width="100" height="100" relative="1" as="geometry">
            <mxPoint x="240" y="260" as="sourcePoint" />
            <mxPoint x="340" y="160" as="targetPoint" />
            <Array as="points">
              <mxPoint x="345" y="85" />
            </Array>
          </mxGeometry>
        </mxCell>
        <mxCell id="86bQosephHpqAEwbpqTj-75" value="" style="edgeStyle=entityRelationEdgeStyle;fontSize=12;html=1;endArrow=ERzeroToMany;startArrow=ERmandOne;rounded=0;" parent="1" source="86bQosephHpqAEwbpqTj-77" target="86bQosephHpqAEwbpqTj-67" edge="1">
          <mxGeometry width="100" height="100" relative="1" as="geometry">
            <mxPoint x="320" y="280" as="sourcePoint" />
            <mxPoint x="400" y="300" as="targetPoint" />
            <Array as="points">
              <mxPoint x="395" y="300" />
            </Array>
          </mxGeometry>
        </mxCell>
        <mxCell id="86bQosephHpqAEwbpqTj-76" value="tb_sites_apostas" style="shape=table;startSize=30;container=1;collapsible=1;childLayout=tableLayout;fixedRows=1;rowLines=0;fontStyle=1;align=center;resizeLast=1;html=1;" parent="1" vertex="1">
          <mxGeometry x="-780" y="780" width="320" height="150" as="geometry" />
        </mxCell>
        <mxCell id="86bQosephHpqAEwbpqTj-77" value="" style="shape=tableRow;horizontal=0;startSize=0;swimlaneHead=0;swimlaneBody=0;fillColor=none;collapsible=0;dropTarget=0;points=[[0,0.5],[1,0.5]];portConstraint=eastwest;top=0;left=0;right=0;bottom=1;" parent="86bQosephHpqAEwbpqTj-76" vertex="1">
          <mxGeometry y="30" width="320" height="30" as="geometry" />
        </mxCell>
        <mxCell id="86bQosephHpqAEwbpqTj-78" value="PK" style="shape=partialRectangle;connectable=0;fillColor=none;top=0;left=0;bottom=0;right=0;fontStyle=1;overflow=hidden;whiteSpace=wrap;html=1;" parent="86bQosephHpqAEwbpqTj-77" vertex="1">
          <mxGeometry width="30" height="30" as="geometry">
            <mxRectangle width="30" height="30" as="alternateBounds" />
          </mxGeometry>
        </mxCell>
        <mxCell id="86bQosephHpqAEwbpqTj-79" value="pk_id_site_aposta: auto_increment NOT NULL" style="shape=partialRectangle;connectable=0;fillColor=none;top=0;left=0;bottom=0;right=0;align=left;spacingLeft=6;fontStyle=5;overflow=hidden;whiteSpace=wrap;html=1;" parent="86bQosephHpqAEwbpqTj-77" vertex="1">
          <mxGeometry x="30" width="290" height="30" as="geometry">
            <mxRectangle width="290" height="30" as="alternateBounds" />
          </mxGeometry>
        </mxCell>
        <mxCell id="86bQosephHpqAEwbpqTj-80" value="" style="shape=tableRow;horizontal=0;startSize=0;swimlaneHead=0;swimlaneBody=0;fillColor=none;collapsible=0;dropTarget=0;points=[[0,0.5],[1,0.5]];portConstraint=eastwest;top=0;left=0;right=0;bottom=0;" parent="86bQosephHpqAEwbpqTj-76" vertex="1">
          <mxGeometry y="60" width="320" height="30" as="geometry" />
        </mxCell>
        <mxCell id="86bQosephHpqAEwbpqTj-81" value="" style="shape=partialRectangle;connectable=0;fillColor=none;top=0;left=0;bottom=0;right=0;editable=1;overflow=hidden;whiteSpace=wrap;html=1;" parent="86bQosephHpqAEwbpqTj-80" vertex="1">
          <mxGeometry width="30" height="30" as="geometry">
            <mxRectangle width="30" height="30" as="alternateBounds" />
          </mxGeometry>
        </mxCell>
        <mxCell id="86bQosephHpqAEwbpqTj-82" value="site:varchar(150) NOTNULL" style="shape=partialRectangle;connectable=0;fillColor=none;top=0;left=0;bottom=0;right=0;align=left;spacingLeft=6;overflow=hidden;whiteSpace=wrap;html=1;" parent="86bQosephHpqAEwbpqTj-80" vertex="1">
          <mxGeometry x="30" width="290" height="30" as="geometry">
            <mxRectangle width="290" height="30" as="alternateBounds" />
          </mxGeometry>
        </mxCell>
        <mxCell id="86bQosephHpqAEwbpqTj-111" style="shape=tableRow;horizontal=0;startSize=0;swimlaneHead=0;swimlaneBody=0;fillColor=none;collapsible=0;dropTarget=0;points=[[0,0.5],[1,0.5]];portConstraint=eastwest;top=0;left=0;right=0;bottom=0;" parent="86bQosephHpqAEwbpqTj-76" vertex="1">
          <mxGeometry y="90" width="320" height="30" as="geometry" />
        </mxCell>
        <mxCell id="86bQosephHpqAEwbpqTj-112" style="shape=partialRectangle;connectable=0;fillColor=none;top=0;left=0;bottom=0;right=0;editable=1;overflow=hidden;whiteSpace=wrap;html=1;" parent="86bQosephHpqAEwbpqTj-111" vertex="1">
          <mxGeometry width="30" height="30" as="geometry">
            <mxRectangle width="30" height="30" as="alternateBounds" />
          </mxGeometry>
        </mxCell>
        <mxCell id="86bQosephHpqAEwbpqTj-113" value="tax_junior:int NOT NULL" style="shape=partialRectangle;connectable=0;fillColor=none;top=0;left=0;bottom=0;right=0;align=left;spacingLeft=6;overflow=hidden;whiteSpace=wrap;html=1;" parent="86bQosephHpqAEwbpqTj-111" vertex="1">
          <mxGeometry x="30" width="290" height="30" as="geometry">
            <mxRectangle width="290" height="30" as="alternateBounds" />
          </mxGeometry>
        </mxCell>
        <mxCell id="86bQosephHpqAEwbpqTj-108" style="shape=tableRow;horizontal=0;startSize=0;swimlaneHead=0;swimlaneBody=0;fillColor=none;collapsible=0;dropTarget=0;points=[[0,0.5],[1,0.5]];portConstraint=eastwest;top=0;left=0;right=0;bottom=0;" parent="86bQosephHpqAEwbpqTj-76" vertex="1">
          <mxGeometry y="120" width="320" height="30" as="geometry" />
        </mxCell>
        <mxCell id="86bQosephHpqAEwbpqTj-109" style="shape=partialRectangle;connectable=0;fillColor=none;top=0;left=0;bottom=0;right=0;editable=1;overflow=hidden;whiteSpace=wrap;html=1;" parent="86bQosephHpqAEwbpqTj-108" vertex="1">
          <mxGeometry width="30" height="30" as="geometry">
            <mxRectangle width="30" height="30" as="alternateBounds" />
          </mxGeometry>
        </mxCell>
        <mxCell id="86bQosephHpqAEwbpqTj-110" value="tax_pleno: int NOT NULL" style="shape=partialRectangle;connectable=0;fillColor=none;top=0;left=0;bottom=0;right=0;align=left;spacingLeft=6;overflow=hidden;whiteSpace=wrap;html=1;" parent="86bQosephHpqAEwbpqTj-108" vertex="1">
          <mxGeometry x="30" width="290" height="30" as="geometry">
            <mxRectangle width="290" height="30" as="alternateBounds" />
          </mxGeometry>
        </mxCell>
        <mxCell id="e2XpcMaI5s7f8-1Fb0I2-26" value="tb_historico_apostas" style="shape=table;startSize=30;container=1;collapsible=1;childLayout=tableLayout;fixedRows=1;rowLines=0;fontStyle=0;align=center;resizeLast=1;html=1;" vertex="1" parent="1">
          <mxGeometry x="170" y="90" width="389" height="320" as="geometry" />
        </mxCell>
        <mxCell id="e2XpcMaI5s7f8-1Fb0I2-27" value="" style="shape=tableRow;horizontal=0;startSize=0;swimlaneHead=0;swimlaneBody=0;fillColor=none;collapsible=0;dropTarget=0;points=[[0,0.5],[1,0.5]];portConstraint=eastwest;top=0;left=0;right=0;bottom=1;" vertex="1" parent="e2XpcMaI5s7f8-1Fb0I2-26">
          <mxGeometry y="30" width="389" height="20" as="geometry" />
        </mxCell>
        <mxCell id="e2XpcMaI5s7f8-1Fb0I2-28" value="PK" style="shape=partialRectangle;connectable=0;fillColor=none;top=0;left=0;bottom=0;right=0;fontStyle=1;overflow=hidden;whiteSpace=wrap;html=1;" vertex="1" parent="e2XpcMaI5s7f8-1Fb0I2-27">
          <mxGeometry width="30" height="20" as="geometry">
            <mxRectangle width="30" height="20" as="alternateBounds" />
          </mxGeometry>
        </mxCell>
        <mxCell id="e2XpcMaI5s7f8-1Fb0I2-29" value="pk_id_historico_aposta: int auto_increment NOT NULL" style="shape=partialRectangle;connectable=0;fillColor=none;top=0;left=0;bottom=0;right=0;align=left;spacingLeft=6;fontStyle=5;overflow=hidden;whiteSpace=wrap;html=1;" vertex="1" parent="e2XpcMaI5s7f8-1Fb0I2-27">
          <mxGeometry x="30" width="359" height="20" as="geometry">
            <mxRectangle width="359" height="20" as="alternateBounds" />
          </mxGeometry>
        </mxCell>
        <mxCell id="e2XpcMaI5s7f8-1Fb0I2-30" value="" style="shape=tableRow;horizontal=0;startSize=0;swimlaneHead=0;swimlaneBody=0;fillColor=none;collapsible=0;dropTarget=0;points=[[0,0.5],[1,0.5]];portConstraint=eastwest;top=0;left=0;right=0;bottom=0;" vertex="1" parent="e2XpcMaI5s7f8-1Fb0I2-26">
          <mxGeometry y="50" width="389" height="30" as="geometry" />
        </mxCell>
        <mxCell id="e2XpcMaI5s7f8-1Fb0I2-31" value="FK1" style="shape=partialRectangle;connectable=0;fillColor=none;top=0;left=0;bottom=0;right=0;editable=1;overflow=hidden;whiteSpace=wrap;html=1;" vertex="1" parent="e2XpcMaI5s7f8-1Fb0I2-30">
          <mxGeometry width="30" height="30" as="geometry">
            <mxRectangle width="30" height="30" as="alternateBounds" />
          </mxGeometry>
        </mxCell>
        <mxCell id="e2XpcMaI5s7f8-1Fb0I2-32" value="id_usuario: int NOT NULL" style="shape=partialRectangle;connectable=0;fillColor=none;top=0;left=0;bottom=0;right=0;align=left;spacingLeft=6;overflow=hidden;whiteSpace=wrap;html=1;" vertex="1" parent="e2XpcMaI5s7f8-1Fb0I2-30">
          <mxGeometry x="30" width="359" height="30" as="geometry">
            <mxRectangle width="359" height="30" as="alternateBounds" />
          </mxGeometry>
        </mxCell>
        <mxCell id="e2XpcMaI5s7f8-1Fb0I2-33" value="" style="shape=tableRow;horizontal=0;startSize=0;swimlaneHead=0;swimlaneBody=0;fillColor=none;collapsible=0;dropTarget=0;points=[[0,0.5],[1,0.5]];portConstraint=eastwest;top=0;left=0;right=0;bottom=0;" vertex="1" parent="e2XpcMaI5s7f8-1Fb0I2-26">
          <mxGeometry y="80" width="389" height="30" as="geometry" />
        </mxCell>
        <mxCell id="e2XpcMaI5s7f8-1Fb0I2-34" value="FK2" style="shape=partialRectangle;connectable=0;fillColor=none;top=0;left=0;bottom=0;right=0;editable=1;overflow=hidden;whiteSpace=wrap;html=1;" vertex="1" parent="e2XpcMaI5s7f8-1Fb0I2-33">
          <mxGeometry width="30" height="30" as="geometry">
            <mxRectangle width="30" height="30" as="alternateBounds" />
          </mxGeometry>
        </mxCell>
        <mxCell id="e2XpcMaI5s7f8-1Fb0I2-35" value="id_site_aposta: int NOT NULL" style="shape=partialRectangle;connectable=0;fillColor=none;top=0;left=0;bottom=0;right=0;align=left;spacingLeft=6;overflow=hidden;whiteSpace=wrap;html=1;" vertex="1" parent="e2XpcMaI5s7f8-1Fb0I2-33">
          <mxGeometry x="30" width="359" height="30" as="geometry">
            <mxRectangle width="359" height="30" as="alternateBounds" />
          </mxGeometry>
        </mxCell>
        <mxCell id="e2XpcMaI5s7f8-1Fb0I2-51" style="shape=tableRow;horizontal=0;startSize=0;swimlaneHead=0;swimlaneBody=0;fillColor=none;collapsible=0;dropTarget=0;points=[[0,0.5],[1,0.5]];portConstraint=eastwest;top=0;left=0;right=0;bottom=0;" vertex="1" parent="e2XpcMaI5s7f8-1Fb0I2-26">
          <mxGeometry y="110" width="389" height="30" as="geometry" />
        </mxCell>
        <mxCell id="e2XpcMaI5s7f8-1Fb0I2-52" value="FK3" style="shape=partialRectangle;connectable=0;fillColor=none;top=0;left=0;bottom=0;right=0;editable=1;overflow=hidden;whiteSpace=wrap;html=1;" vertex="1" parent="e2XpcMaI5s7f8-1Fb0I2-51">
          <mxGeometry width="30" height="30" as="geometry">
            <mxRectangle width="30" height="30" as="alternateBounds" />
          </mxGeometry>
        </mxCell>
        <mxCell id="e2XpcMaI5s7f8-1Fb0I2-53" value="id_aposta: int NOT NULL" style="shape=partialRectangle;connectable=0;fillColor=none;top=0;left=0;bottom=0;right=0;align=left;spacingLeft=6;overflow=hidden;whiteSpace=wrap;html=1;" vertex="1" parent="e2XpcMaI5s7f8-1Fb0I2-51">
          <mxGeometry x="30" width="359" height="30" as="geometry">
            <mxRectangle width="359" height="30" as="alternateBounds" />
          </mxGeometry>
        </mxCell>
        <mxCell id="e2XpcMaI5s7f8-1Fb0I2-36" value="" style="shape=tableRow;horizontal=0;startSize=0;swimlaneHead=0;swimlaneBody=0;fillColor=none;collapsible=0;dropTarget=0;points=[[0,0.5],[1,0.5]];portConstraint=eastwest;top=0;left=0;right=0;bottom=0;" vertex="1" parent="e2XpcMaI5s7f8-1Fb0I2-26">
          <mxGeometry y="140" width="389" height="30" as="geometry" />
        </mxCell>
        <mxCell id="e2XpcMaI5s7f8-1Fb0I2-37" value="" style="shape=partialRectangle;connectable=0;fillColor=none;top=0;left=0;bottom=0;right=0;editable=1;overflow=hidden;whiteSpace=wrap;html=1;" vertex="1" parent="e2XpcMaI5s7f8-1Fb0I2-36">
          <mxGeometry width="30" height="30" as="geometry">
            <mxRectangle width="30" height="30" as="alternateBounds" />
          </mxGeometry>
        </mxCell>
        <mxCell id="e2XpcMaI5s7f8-1Fb0I2-38" value="id_aposta:varchar(100) NOT NULL" style="shape=partialRectangle;connectable=0;fillColor=none;top=0;left=0;bottom=0;right=0;align=left;spacingLeft=6;overflow=hidden;whiteSpace=wrap;html=1;" vertex="1" parent="e2XpcMaI5s7f8-1Fb0I2-36">
          <mxGeometry x="30" width="359" height="30" as="geometry">
            <mxRectangle width="359" height="30" as="alternateBounds" />
          </mxGeometry>
        </mxCell>
        <mxCell id="e2XpcMaI5s7f8-1Fb0I2-39" style="shape=tableRow;horizontal=0;startSize=0;swimlaneHead=0;swimlaneBody=0;fillColor=none;collapsible=0;dropTarget=0;points=[[0,0.5],[1,0.5]];portConstraint=eastwest;top=0;left=0;right=0;bottom=0;" vertex="1" parent="e2XpcMaI5s7f8-1Fb0I2-26">
          <mxGeometry y="170" width="389" height="30" as="geometry" />
        </mxCell>
        <mxCell id="e2XpcMaI5s7f8-1Fb0I2-40" style="shape=partialRectangle;connectable=0;fillColor=none;top=0;left=0;bottom=0;right=0;editable=1;overflow=hidden;whiteSpace=wrap;html=1;" vertex="1" parent="e2XpcMaI5s7f8-1Fb0I2-39">
          <mxGeometry width="30" height="30" as="geometry">
            <mxRectangle width="30" height="30" as="alternateBounds" />
          </mxGeometry>
        </mxCell>
        <mxCell id="e2XpcMaI5s7f8-1Fb0I2-41" value="data_registro_aposta: datetime NOT NULL" style="shape=partialRectangle;connectable=0;fillColor=none;top=0;left=0;bottom=0;right=0;align=left;spacingLeft=6;overflow=hidden;whiteSpace=wrap;html=1;" vertex="1" parent="e2XpcMaI5s7f8-1Fb0I2-39">
          <mxGeometry x="30" width="359" height="30" as="geometry">
            <mxRectangle width="359" height="30" as="alternateBounds" />
          </mxGeometry>
        </mxCell>
        <mxCell id="e2XpcMaI5s7f8-1Fb0I2-42" style="shape=tableRow;horizontal=0;startSize=0;swimlaneHead=0;swimlaneBody=0;fillColor=none;collapsible=0;dropTarget=0;points=[[0,0.5],[1,0.5]];portConstraint=eastwest;top=0;left=0;right=0;bottom=0;" vertex="1" parent="e2XpcMaI5s7f8-1Fb0I2-26">
          <mxGeometry y="200" width="389" height="30" as="geometry" />
        </mxCell>
        <mxCell id="e2XpcMaI5s7f8-1Fb0I2-43" style="shape=partialRectangle;connectable=0;fillColor=none;top=0;left=0;bottom=0;right=0;editable=1;overflow=hidden;whiteSpace=wrap;html=1;" vertex="1" parent="e2XpcMaI5s7f8-1Fb0I2-42">
          <mxGeometry width="30" height="30" as="geometry">
            <mxRectangle width="30" height="30" as="alternateBounds" />
          </mxGeometry>
        </mxCell>
        <mxCell id="e2XpcMaI5s7f8-1Fb0I2-44" value="data_aposta: datetime default current_timestamp NOT NULL" style="shape=partialRectangle;connectable=0;fillColor=none;top=0;left=0;bottom=0;right=0;align=left;spacingLeft=6;overflow=hidden;whiteSpace=wrap;html=1;" vertex="1" parent="e2XpcMaI5s7f8-1Fb0I2-42">
          <mxGeometry x="30" width="359" height="30" as="geometry">
            <mxRectangle width="359" height="30" as="alternateBounds" />
          </mxGeometry>
        </mxCell>
        <mxCell id="e2XpcMaI5s7f8-1Fb0I2-45" style="shape=tableRow;horizontal=0;startSize=0;swimlaneHead=0;swimlaneBody=0;fillColor=none;collapsible=0;dropTarget=0;points=[[0,0.5],[1,0.5]];portConstraint=eastwest;top=0;left=0;right=0;bottom=0;" vertex="1" parent="e2XpcMaI5s7f8-1Fb0I2-26">
          <mxGeometry y="230" width="389" height="30" as="geometry" />
        </mxCell>
        <mxCell id="e2XpcMaI5s7f8-1Fb0I2-46" style="shape=partialRectangle;connectable=0;fillColor=none;top=0;left=0;bottom=0;right=0;editable=1;overflow=hidden;whiteSpace=wrap;html=1;" vertex="1" parent="e2XpcMaI5s7f8-1Fb0I2-45">
          <mxGeometry width="30" height="30" as="geometry">
            <mxRectangle width="30" height="30" as="alternateBounds" />
          </mxGeometry>
        </mxCell>
        <mxCell id="e2XpcMaI5s7f8-1Fb0I2-47" value="valor_aposta:float(12,2) NOT NULL" style="shape=partialRectangle;connectable=0;fillColor=none;top=0;left=0;bottom=0;right=0;align=left;spacingLeft=6;overflow=hidden;whiteSpace=wrap;html=1;" vertex="1" parent="e2XpcMaI5s7f8-1Fb0I2-45">
          <mxGeometry x="30" width="359" height="30" as="geometry">
            <mxRectangle width="359" height="30" as="alternateBounds" />
          </mxGeometry>
        </mxCell>
        <mxCell id="e2XpcMaI5s7f8-1Fb0I2-48" style="shape=tableRow;horizontal=0;startSize=0;swimlaneHead=0;swimlaneBody=0;fillColor=none;collapsible=0;dropTarget=0;points=[[0,0.5],[1,0.5]];portConstraint=eastwest;top=0;left=0;right=0;bottom=0;" vertex="1" parent="e2XpcMaI5s7f8-1Fb0I2-26">
          <mxGeometry y="260" width="389" height="30" as="geometry" />
        </mxCell>
        <mxCell id="e2XpcMaI5s7f8-1Fb0I2-49" style="shape=partialRectangle;connectable=0;fillColor=none;top=0;left=0;bottom=0;right=0;editable=1;overflow=hidden;whiteSpace=wrap;html=1;" vertex="1" parent="e2XpcMaI5s7f8-1Fb0I2-48">
          <mxGeometry width="30" height="30" as="geometry">
            <mxRectangle width="30" height="30" as="alternateBounds" />
          </mxGeometry>
        </mxCell>
        <mxCell id="e2XpcMaI5s7f8-1Fb0I2-50" value="valor_recebido: float(12,2) NOT NULL" style="shape=partialRectangle;connectable=0;fillColor=none;top=0;left=0;bottom=0;right=0;align=left;spacingLeft=6;overflow=hidden;whiteSpace=wrap;html=1;" vertex="1" parent="e2XpcMaI5s7f8-1Fb0I2-48">
          <mxGeometry x="30" width="359" height="30" as="geometry">
            <mxRectangle width="359" height="30" as="alternateBounds" />
          </mxGeometry>
        </mxCell>
        <mxCell id="e2XpcMaI5s7f8-1Fb0I2-57" style="shape=tableRow;horizontal=0;startSize=0;swimlaneHead=0;swimlaneBody=0;fillColor=none;collapsible=0;dropTarget=0;points=[[0,0.5],[1,0.5]];portConstraint=eastwest;top=0;left=0;right=0;bottom=0;" vertex="1" parent="e2XpcMaI5s7f8-1Fb0I2-26">
          <mxGeometry y="290" width="389" height="30" as="geometry" />
        </mxCell>
        <mxCell id="e2XpcMaI5s7f8-1Fb0I2-58" style="shape=partialRectangle;connectable=0;fillColor=none;top=0;left=0;bottom=0;right=0;editable=1;overflow=hidden;whiteSpace=wrap;html=1;" vertex="1" parent="e2XpcMaI5s7f8-1Fb0I2-57">
          <mxGeometry width="30" height="30" as="geometry">
            <mxRectangle width="30" height="30" as="alternateBounds" />
          </mxGeometry>
        </mxCell>
        <mxCell id="e2XpcMaI5s7f8-1Fb0I2-59" value="taxa_usuario:float(12,2) NOT NULL" style="shape=partialRectangle;connectable=0;fillColor=none;top=0;left=0;bottom=0;right=0;align=left;spacingLeft=6;overflow=hidden;whiteSpace=wrap;html=1;" vertex="1" parent="e2XpcMaI5s7f8-1Fb0I2-57">
          <mxGeometry x="30" width="359" height="30" as="geometry">
            <mxRectangle width="359" height="30" as="alternateBounds" />
          </mxGeometry>
        </mxCell>
        <mxCell id="e2XpcMaI5s7f8-1Fb0I2-54" value="" style="edgeStyle=entityRelationEdgeStyle;fontSize=12;html=1;endArrow=ERzeroToMany;startArrow=ERmandOne;rounded=0;" edge="1" parent="1" source="86bQosephHpqAEwbpqTj-28" target="e2XpcMaI5s7f8-1Fb0I2-30">
          <mxGeometry width="100" height="100" relative="1" as="geometry">
            <mxPoint x="240" y="345.49" as="sourcePoint" />
            <mxPoint x="370.778" y="109.99999999999999" as="targetPoint" />
            <Array as="points">
              <mxPoint x="245" y="635.49" />
            </Array>
          </mxGeometry>
        </mxCell>
        <mxCell id="e2XpcMaI5s7f8-1Fb0I2-55" value="" style="edgeStyle=entityRelationEdgeStyle;fontSize=12;html=1;endArrow=ERzeroToMany;startArrow=ERmandOne;rounded=0;" edge="1" parent="1" source="86bQosephHpqAEwbpqTj-61" target="e2XpcMaI5s7f8-1Fb0I2-51">
          <mxGeometry width="100" height="100" relative="1" as="geometry">
            <mxPoint x="170" y="510" as="sourcePoint" />
            <mxPoint x="370" y="610" as="targetPoint" />
            <Array as="points">
              <mxPoint x="385" y="465" />
            </Array>
          </mxGeometry>
        </mxCell>
        <mxCell id="e2XpcMaI5s7f8-1Fb0I2-56" value="" style="edgeStyle=entityRelationEdgeStyle;fontSize=12;html=1;endArrow=ERzeroToMany;startArrow=ERmandOne;rounded=0;" edge="1" parent="1" source="86bQosephHpqAEwbpqTj-77" target="e2XpcMaI5s7f8-1Fb0I2-33">
          <mxGeometry width="100" height="100" relative="1" as="geometry">
            <mxPoint x="150" y="510" as="sourcePoint" />
            <mxPoint x="280" y="620" as="targetPoint" />
            <Array as="points">
              <mxPoint x="295" y="475" />
            </Array>
          </mxGeometry>
        </mxCell>
      </root>
    </mxGraphModel>
  </diagram>
</mxfile>
